<svg width="25" height="24" viewBox="0 0 25 24" fill="none" xmlns="http://www.w3.org/2000/svg">
<path d="M23.8544 10.4388L23.8527 10.4372L14.0626 0.647499C13.6453 0.229999 13.0905 0 12.5004 0C11.9102 0 11.3554 0.229801 10.9379 0.647301L1.15293 10.4321C1.14963 10.4354 1.14633 10.4388 1.14313 10.4421C0.286129 11.304 0.287629 12.7024 1.14733 13.5621C1.54003 13.955 2.05883 14.1826 2.61343 14.2064C2.63593 14.2086 2.65863 14.2097 2.68153 14.2097H3.07173V21.4144C3.07173 22.84 4.23173 24 5.65773 24H9.48793C9.87613 24 10.191 23.6852 10.191 23.2969V17.6484C10.191 16.9979 10.7202 16.4687 11.3708 16.4687H13.6299C14.2805 16.4687 14.8097 16.9979 14.8097 17.6484V23.2969C14.8097 23.6852 15.1244 24 15.5128 24H19.343C20.769 24 21.929 22.84 21.929 21.4144V14.2097H22.2908C22.8808 14.2097 23.4356 13.9799 23.8533 13.5624C24.7139 12.7013 24.7142 11.3005 23.8544 10.4388Z" fill="#2D2A26"/>
</svg>
