<svg width="24" height="24" viewBox="0 0 24 24" fill="none" xmlns="http://www.w3.org/2000/svg">
<path d="M10.56 1.92V8.64C10.56 9.1492 10.3577 9.6376 9.9976 9.9976C9.6376 10.3577 9.1492 10.56 8.64 10.56H1.92C1.4108 10.56 0.922401 10.3577 0.562401 9.9976C0.202301 9.6376 0 9.1492 0 8.64V1.92C0 1.4108 0.202301 0.922401 0.562401 0.562401C0.922401 0.202301 1.4108 0 1.92 0H8.64C9.1492 0 9.6376 0.202301 9.9976 0.562401C10.3577 0.922401 10.56 1.4108 10.56 1.92ZM22.08 0H15.36C14.8508 0 14.3624 0.202301 14.0024 0.562401C13.6423 0.922401 13.44 1.4108 13.44 1.92V8.64C13.44 9.1492 13.6423 9.6376 14.0024 9.9976C14.3624 10.3577 14.8508 10.56 15.36 10.56H22.08C22.589 10.56 23.078 10.3577 23.438 9.9976C23.798 9.6376 24 9.1492 24 8.64V1.92C24 1.4108 23.798 0.922401 23.438 0.562401C23.078 0.202301 22.589 0 22.08 0ZM8.64 13.44H1.92C1.4108 13.44 0.922401 13.6423 0.562401 14.0024C0.202301 14.3624 0 14.8508 0 15.36V22.08C0 22.5892 0.202301 23.0776 0.562401 23.4376C0.922401 23.7977 1.4108 24 1.92 24H8.64C9.1492 24 9.6376 23.7977 9.9976 23.4376C10.3577 23.0776 10.56 22.5892 10.56 22.08V15.36C10.56 14.8508 10.3577 14.3624 9.9976 14.0024C9.6376 13.6423 9.1492 13.44 8.64 13.44ZM18.72 13.44C17.676 13.44 16.6549 13.7497 15.7866 14.3298C14.9183 14.91 14.2415 15.7346 13.8419 16.6994C13.4423 17.6642 13.3377 18.7259 13.5415 19.7501C13.7452 20.7743 14.2481 21.7151 14.9865 22.4535C15.7249 23.1919 16.6657 23.6948 17.69 23.8985C18.714 24.1023 19.776 23.9977 20.741 23.5981C21.705 23.1985 22.53 22.5217 23.11 21.6534C23.69 20.7851 24 19.7643 24 18.72C24 17.3197 23.444 15.9767 22.454 14.9865C21.463 13.9963 20.12 13.44 18.72 13.44Z" fill="#2D2A26"/>
</svg>
