<svg width="60" height="60" viewBox="0 0 60 60" fill="none" xmlns="http://www.w3.org/2000/svg">
<g filter="url(#filter0_dd_295_213)">
<g clip-path="url(#clip0_295_213)">
<rect x="11" y="7" width="37.1984" height="38" rx="5" fill="#D9D9D9"/>
</g>
</g>
<path d="M25.5733 21.0217C25.3791 21.0217 25.1929 21.1024 25.0557 21.246C24.9184 21.3896 24.8413 21.5845 24.8413 21.7876V22.5535C24.8413 22.7566 24.9184 22.9514 25.0557 23.095C25.1929 23.2387 25.3791 23.3194 25.5733 23.3194H25.9393V30.2124C25.9393 30.6186 26.0935 31.0083 26.3681 31.2955C26.6426 31.5828 27.015 31.7442 27.4032 31.7442H31.7952C32.1835 31.7442 32.5558 31.5828 32.8304 31.2955C33.1049 31.0083 33.2592 30.6186 33.2592 30.2124V23.3194H33.6252C33.8193 23.3194 34.0055 23.2387 34.1428 23.095C34.28 22.9514 34.3572 22.7566 34.3572 22.5535V21.7876C34.3572 21.5845 34.28 21.3896 34.1428 21.246C34.0055 21.1024 33.8193 21.0217 33.6252 21.0217H31.0632C31.0632 20.8186 30.9861 20.6238 30.8488 20.4801C30.7115 20.3365 30.5253 20.2558 30.3312 20.2558H28.8672C28.6731 20.2558 28.4869 20.3365 28.3496 20.4801C28.2124 20.6238 28.1352 20.8186 28.1352 21.0217H25.5733ZM27.7692 24.0853C27.8663 24.0853 27.9594 24.1256 28.028 24.1974C28.0967 24.2692 28.1352 24.3666 28.1352 24.4682V29.8294C28.1352 29.931 28.0967 30.0284 28.028 30.1002C27.9594 30.172 27.8663 30.2124 27.7692 30.2124C27.6722 30.2124 27.5791 30.172 27.5104 30.1002C27.4418 30.0284 27.4032 29.931 27.4032 29.8294V24.4682C27.4032 24.3666 27.4418 24.2692 27.5104 24.1974C27.5791 24.1256 27.6722 24.0853 27.7692 24.0853ZM29.5992 24.0853C29.6963 24.0853 29.7894 24.1256 29.858 24.1974C29.9267 24.2692 29.9652 24.3666 29.9652 24.4682V29.8294C29.9652 29.931 29.9267 30.0284 29.858 30.1002C29.7894 30.172 29.6963 30.2124 29.5992 30.2124C29.5021 30.2124 29.4091 30.172 29.3404 30.1002C29.2718 30.0284 29.2332 29.931 29.2332 29.8294V24.4682C29.2332 24.3666 29.2718 24.2692 29.3404 24.1974C29.4091 24.1256 29.5021 24.0853 29.5992 24.0853ZM31.7952 24.4682V29.8294C31.7952 29.931 31.7566 30.0284 31.688 30.1002C31.6194 30.172 31.5263 30.2124 31.4292 30.2124C31.3321 30.2124 31.239 30.172 31.1704 30.1002C31.1018 30.0284 31.0632 29.931 31.0632 29.8294V24.4682C31.0632 24.3666 31.1018 24.2692 31.1704 24.1974C31.239 24.1256 31.3321 24.0853 31.4292 24.0853C31.5263 24.0853 31.6194 24.1256 31.688 24.1974C31.7566 24.2692 31.7952 24.3666 31.7952 24.4682Z" fill="#2D2A26"/>
<defs>
<filter id="filter0_dd_295_213" x="0" y="0" width="59.1984" height="60" filterUnits="userSpaceOnUse" color-interpolation-filters="sRGB">
<feFlood flood-opacity="0" result="BackgroundImageFix"/>
<feColorMatrix in="SourceAlpha" type="matrix" values="0 0 0 0 0 0 0 0 0 0 0 0 0 0 0 0 0 0 127 0" result="hardAlpha"/>
<feOffset dy="1"/>
<feGaussianBlur stdDeviation="1.5"/>
<feColorMatrix type="matrix" values="0 0 0 0 0 0 0 0 0 0 0 0 0 0 0 0 0 0 0.3 0"/>
<feBlend mode="normal" in2="BackgroundImageFix" result="effect1_dropShadow_295_213"/>
<feColorMatrix in="SourceAlpha" type="matrix" values="0 0 0 0 0 0 0 0 0 0 0 0 0 0 0 0 0 0 127 0" result="hardAlpha"/>
<feMorphology radius="3" operator="dilate" in="SourceAlpha" result="effect2_dropShadow_295_213"/>
<feOffset dy="4"/>
<feGaussianBlur stdDeviation="4"/>
<feColorMatrix type="matrix" values="0 0 0 0 0 0 0 0 0 0 0 0 0 0 0 0 0 0 0.15 0"/>
<feBlend mode="normal" in2="effect1_dropShadow_295_213" result="effect2_dropShadow_295_213"/>
<feBlend mode="normal" in="SourceGraphic" in2="effect2_dropShadow_295_213" result="shape"/>
</filter>
<clipPath id="clip0_295_213">
<rect x="11" y="7" width="37.1984" height="38" rx="5" fill="white"/>
</clipPath>
</defs>
</svg>
