<svg width="86" height="83" viewBox="0 0 86 83" fill="none" xmlns="http://www.w3.org/2000/svg">
<g filter="url(#filter0_d_1257_1109)">
<path d="M43.3268 72.6735C61.9242 72.6735 77.0003 58.2826 77.0003 40.5306C77.0003 22.7786 61.9242 8.3877 43.3268 8.3877C24.7295 8.3877 9.65332 22.7786 9.65332 40.5306C9.65332 58.2826 24.7295 72.6735 43.3268 72.6735Z" fill="#F6B318"/>
<path d="M58.1489 23.8188L62.9999 34.5971V62.9806H53.2939V34.5971L58.1489 23.8188Z" fill="#D9D9D9"/>
<path d="M56.345 18.7886H30.297C29.82 18.7886 29.363 18.9779 29.027 19.3148C28.69 19.6518 28.5 20.1088 28.5 20.5853V23.8189H58.142V20.5853C58.142 20.1088 57.953 19.6518 57.616 19.3148C57.279 18.9779 56.822 18.7886 56.345 18.7886Z" fill="#F2F2F2"/>
<path d="M23.6528 34.5971V62.979H53.2908V34.5971L58.1418 23.8188H28.5028L23.6528 34.5971Z" fill="#FBFBFB"/>
<path d="M29.0499 44.2787C29.6749 42.6352 30.7289 41.1892 32.1019 40.0911C33.4749 38.9931 35.1179 38.2831 36.8579 38.035C38.5989 37.7869 40.3749 38.0098 41.9999 38.6805C43.6249 39.3512 45.0409 40.4452 46.1009 41.8486L48.2879 41.5363C47.0779 39.5868 45.3259 38.0318 43.2459 37.061C41.1669 36.0902 38.8499 35.7457 36.5779 36.0694C34.3059 36.3931 32.1769 37.371 30.4519 38.8839C28.7259 40.3968 27.4779 42.3792 26.8599 44.5893L29.0499 44.2787Z" fill="#F6B318"/>
<path d="M45.8556 54.015C44.9476 55.1223 43.8086 56.0179 42.5176 56.6393C41.2276 57.2607 39.8176 57.593 38.3856 57.6129C36.9536 57.6327 35.5346 57.3398 34.2276 56.7544C32.9206 56.169 31.7576 55.3054 30.8186 54.2238L28.5586 54.5467C29.7006 56.1809 31.2376 57.4997 33.0266 58.3805C34.8156 59.2613 36.7976 59.6754 38.7896 59.5844C40.7806 59.4933 42.7176 58.9001 44.4176 57.8598C46.1186 56.8194 47.5286 55.3659 48.5166 53.6343L45.8556 54.015Z" fill="#F6B318"/>
<path d="M39.5037 53.2854L39.4517 53.0134C39.4077 53.0079 39.3637 53.0079 39.3197 53.0134C39.0807 53.0485 38.9687 53.1467 39.0457 53.6591C39.1097 54.11 39.2387 54.1767 39.5057 54.1381C39.6117 54.122 39.7147 54.0913 39.8127 54.0468L39.8817 54.2714C39.7557 54.3238 39.6247 54.3609 39.4897 54.382C39.0407 54.4451 38.8167 54.3293 38.7267 53.7117C38.6307 53.038 38.8517 52.8432 39.2967 52.7818C39.4137 52.7668 39.5317 52.7668 39.6477 52.7818L39.7107 53.2608L39.5037 53.2854Z" fill="#2D2A26"/>
<path d="M40.4637 54.0168L40.6397 53.9817L40.4777 52.85L40.2917 52.8675L40.2637 52.6658L40.9357 52.5693L40.9637 52.771L40.7887 52.8027L40.8497 53.2273L41.4467 53.1431L41.3867 52.7183L41.2117 52.736L41.1837 52.5342L41.8537 52.4395L41.8837 52.6412L41.6987 52.6763L41.8607 53.808L42.0467 53.7905L42.0747 53.9923L41.4047 54.087L41.3767 53.8852L41.5517 53.8537L41.4847 53.3852L40.8867 53.4711L40.9537 53.9396L41.1287 53.9221L41.1567 54.1238L40.4847 54.2204L40.4637 54.0168Z" fill="#2D2A26"/>
<path d="M42.6629 53.6973L42.8379 53.6622L42.6769 52.5306L42.4909 52.5481L42.4619 52.3463L43.1489 52.248L43.1769 52.4498L43.0009 52.4849L43.1629 53.6184L43.3489 53.6008L43.3769 53.8026L42.6909 53.9008L42.6629 53.6973Z" fill="#2D2A26"/>
<path d="M44.6947 52.5553L44.6427 52.2834C44.5987 52.2779 44.5546 52.2779 44.5106 52.2834C44.2726 52.3185 44.1596 52.4167 44.2366 52.9291C44.3006 53.38 44.4297 53.4466 44.6967 53.408C44.8027 53.392 44.9066 53.3613 45.0036 53.3168L45.0726 53.5414C44.9466 53.5937 44.8156 53.6308 44.6806 53.6519C44.2316 53.7151 44.0076 53.5993 43.9176 52.9817C43.8216 52.3079 44.0427 52.1132 44.4877 52.0518C44.6047 52.0368 44.7227 52.0368 44.8387 52.0518L44.9016 52.5308L44.6947 52.5553Z" fill="#2D2A26"/>
<path d="M45.6546 53.2762L45.8306 53.2411L45.6686 52.1094L45.4826 52.127L45.4546 51.9252L46.0916 51.834L46.1196 52.0287L45.9826 52.0533L46.0586 52.5797L46.4546 51.9936L46.3096 52.0077L46.2816 51.8129L46.9186 51.7217L46.9466 51.9235L46.8196 51.948L46.4056 52.5498L47.0076 53.0762L47.1396 53.0622L47.1676 53.2639L46.5056 53.3569L46.4776 53.1639L46.6236 53.1376L46.0796 52.6481L46.1606 53.2113L46.2976 53.1955L46.3256 53.3903L45.6886 53.4815L45.6546 53.2762Z" fill="#2D2A26"/>
<path d="M48.4976 52.5061L48.4676 52.378L48.1296 52.4271L48.1946 52.8903L48.6416 52.8272L48.6256 52.6377L48.8416 52.6061L48.9016 53.0184L47.7236 53.1939L47.6956 52.9921L47.8716 52.957L47.7096 51.8236L47.5236 51.8411L47.4956 51.6393L48.6736 51.4639L48.7296 51.8622L48.5136 51.8937L48.4766 51.7183L48.0296 51.7814L48.0906 52.2148L48.4296 52.1657V52.0376L48.6246 52.0095L48.6886 52.4727L48.4976 52.5061Z" fill="#2D2A26"/>
<path d="M49.5327 52.9289L49.5047 52.7271L49.6797 52.6921L49.5187 51.5604L49.3327 51.5779L49.3047 51.3761L49.9067 51.2901L50.4727 52.0411C50.5717 52.1734 50.6617 52.311 50.7447 52.4534C50.7067 52.3025 50.6717 52.1376 50.6517 52.0148L50.5657 51.4042L50.3907 51.4218L50.3627 51.2235L50.9787 51.1357L51.0067 51.3375L50.8417 51.3674L51.0327 52.7113L50.6207 52.771L50.0517 52.02C49.9537 51.8878 49.8627 51.7501 49.7797 51.6077H49.7707C49.8097 51.7586 49.8467 51.9235 49.8637 52.0464L49.9497 52.6552L50.1257 52.6377L50.1537 52.8359L49.5327 52.9289Z" fill="#2D2A26"/>
<path d="M47.616 43.8174C47.674 43.8065 47.734 43.808 47.792 43.8216C47.849 43.8351 47.904 43.8606 47.951 43.8964C48.142 44.042 48.265 44.3701 48.349 44.9631L50.165 44.5157C50.129 43.7557 49.794 43.0408 49.234 42.526C48.99 42.3631 48.717 42.2512 48.429 42.1972C48.141 42.1432 47.845 42.1482 47.56 42.212C46.87 42.2787 46.23 42.601 45.767 43.1156C45.558 43.3864 45.409 43.6986 45.33 44.0314C45.252 44.3642 45.245 44.7099 45.31 45.0456C45.535 46.6019 46.619 47.023 47.577 47.3932H47.588C48.29 47.6564 48.911 47.8845 49.005 48.5372C49.039 48.6922 49.025 48.854 48.963 49.0004C48.932 49.0575 48.887 49.1059 48.832 49.1411C48.777 49.1764 48.714 49.1974 48.649 49.2022C48.149 49.2741 47.89 48.9372 47.735 48.002L45.858 48.4845C45.842 48.4886 45.825 48.4868 45.811 48.4794C45.796 48.4719 45.785 48.4594 45.779 48.4442L43.758 43.0787L41.252 43.4402L40.822 50.5286C40.821 50.5429 40.816 50.5565 40.806 50.5674C40.797 50.5782 40.784 50.5858 40.77 50.589C40.756 50.5921 40.742 50.5907 40.729 50.5849C40.716 50.579 40.705 50.5691 40.698 50.5567L39.227 47.7652C39.222 47.7504 39.222 47.7343 39.227 47.7196L40.306 42.5629L38.171 42.8629L37.655 46.451C37.653 46.4651 37.647 46.4782 37.636 46.4883C37.626 46.4984 37.613 46.505 37.599 46.5071H37.541C37.527 46.5092 37.512 46.5065 37.5 46.4996C37.487 46.4926 37.477 46.4817 37.471 46.4686L36.38 44.1139L25.582 45.6404L25.821 47.2984L27.187 47.1037C27.204 47.1012 27.222 47.1055 27.236 47.1157C27.249 47.1259 27.259 47.1411 27.261 47.1581L28.174 53.65L30.051 53.3868L29.139 46.8949C29.136 46.8776 29.14 46.8599 29.151 46.8458C29.156 46.8386 29.162 46.8325 29.17 46.828C29.178 46.8234 29.186 46.8205 29.195 46.8195L30.367 46.6545C30.375 46.6533 30.384 46.6538 30.392 46.6559C30.401 46.6581 30.409 46.6619 30.415 46.6672C30.422 46.6724 30.428 46.6789 30.432 46.6864C30.437 46.6938 30.439 46.7021 30.44 46.7107L31.353 53.2026L35.294 52.6481H35.302C35.312 52.6479 35.322 52.6499 35.331 52.654C35.34 52.6581 35.348 52.6642 35.354 52.6718C35.36 52.6794 35.365 52.6883 35.367 52.6979C35.369 52.7075 35.369 52.7175 35.367 52.7271L34.971 54.7852L37.324 54.4711L37.876 49.5408C37.878 49.5264 37.885 49.5131 37.895 49.5027C37.905 49.4923 37.918 49.4853 37.932 49.4829H37.978C37.992 49.4808 38.007 49.4835 38.02 49.4905C38.032 49.4974 38.042 49.5083 38.048 49.5215L39.187 52.1112L42.696 51.6164L42.724 49.9373C42.725 49.9219 42.731 49.9072 42.741 49.8957C42.751 49.8842 42.765 49.8766 42.78 49.8742L44.138 49.6794C44.154 49.677 44.17 49.6804 44.183 49.6888C44.196 49.6971 44.206 49.71 44.21 49.725L44.712 51.3357L46.744 51.048L46.481 50.3093C46.477 50.2972 46.477 50.2844 46.48 50.2723C46.484 50.2602 46.491 50.2493 46.5 50.2409C46.512 50.2313 46.526 50.2261 46.541 50.2261C46.556 50.2261 46.571 50.2313 46.582 50.2409C46.876 50.4953 47.227 50.6749 47.605 50.7644C47.984 50.854 48.378 50.8507 48.755 50.7549C49.096 50.7362 49.429 50.6414 49.729 50.4777C50.028 50.3139 50.288 50.0852 50.488 49.8082C50.689 49.5313 50.824 49.2131 50.886 48.877C50.948 48.5408 50.933 48.1951 50.844 47.8652C50.627 46.3527 49.441 45.8808 48.502 45.5L48.374 45.4491C47.737 45.1754 47.321 44.9526 47.232 44.3806C47.208 44.2569 47.228 44.1289 47.286 44.0174C47.322 43.9609 47.37 43.9134 47.427 43.8787C47.485 43.844 47.549 43.823 47.616 43.8174ZM36.334 48.2178L35.778 50.8146C35.775 50.8275 35.768 50.8393 35.758 50.8483C35.749 50.8574 35.737 50.8634 35.723 50.8655L33.039 51.241H33.03C33.016 51.2406 33.001 51.2357 32.99 51.2269C32.983 51.2218 32.977 51.2152 32.972 51.2077C32.968 51.2001 32.965 51.1918 32.963 51.1831L32.744 49.6145C32.743 49.6059 32.743 49.5971 32.745 49.5886C32.747 49.5802 32.751 49.5723 32.756 49.5654C32.762 49.5582 32.768 49.5522 32.776 49.5477C32.783 49.5432 32.792 49.5402 32.8 49.539L34.685 49.2671L34.453 47.6529L32.574 47.9231C32.565 47.9245 32.557 47.9242 32.548 47.9221C32.54 47.92 32.532 47.9161 32.525 47.9108C32.518 47.9056 32.512 47.8991 32.507 47.8916C32.503 47.884 32.5 47.8756 32.499 47.8669L32.3 46.4633C32.299 46.4547 32.299 46.4459 32.301 46.4374C32.303 46.429 32.307 46.421 32.313 46.4142C32.318 46.407 32.324 46.401 32.332 46.3965C32.339 46.392 32.348 46.389 32.356 46.3878L35.053 46.0088C35.066 46.0069 35.08 46.009 35.092 46.015C35.104 46.021 35.114 46.0304 35.12 46.0422L36.327 48.1705C36.334 48.1851 36.338 48.2019 36.334 48.2178ZM43.665 48.1021C43.66 48.11 43.653 48.1167 43.645 48.1218C43.637 48.127 43.628 48.1304 43.619 48.1319L42.81 48.2477H42.801C42.786 48.2476 42.771 48.242 42.759 48.2319C42.752 48.2257 42.747 48.2182 42.743 48.2097C42.739 48.2013 42.737 48.1921 42.736 48.1827L42.715 45.3755C42.716 45.3598 42.721 45.3446 42.732 45.3328C42.742 45.3209 42.756 45.313 42.771 45.3105L42.84 45.3018C42.856 45.2994 42.872 45.3029 42.886 45.3116C42.899 45.3203 42.909 45.3337 42.914 45.3491L43.677 48.0582C43.678 48.0737 43.673 48.0891 43.665 48.1021Z" fill="#2D2A26"/>
<path d="M50.115 42.2926L49.989 42.3101L50.059 42.7962L49.942 42.8137L49.8719 42.3277L49.7449 42.3452L49.731 42.2487L50.103 42.1943L50.115 42.2926Z" fill="#2D2A26"/>
<path d="M50.3278 42.1625L50.4698 42.5607L50.4948 42.1379L50.6698 42.1133L50.7538 42.6958L50.6468 42.7116L50.5788 42.2484L50.5418 42.7274L50.4508 42.7415L50.2748 42.2923L50.3438 42.7555L50.2368 42.7713L50.1528 42.1888L50.3278 42.1625Z" fill="#2D2A26"/>
<path d="M37.8768 39.3311L34.8628 42.2928L36.4798 42.0576L37.2348 43.5087L37.8768 39.3311Z" fill="#F6B318"/>
<path d="M36.5546 40.3767L35.2666 39.7188L35.9276 40.9925L36.5546 40.3767Z" fill="#F6B318"/>
<path d="M37.8039 41.0171L37.6709 41.8944L39.0969 41.6874L37.8039 41.0171Z" fill="#F6B318"/>
</g>
<defs>
<filter id="filter0_d_1257_1109" x="0.9276" y="0.6315" width="84.7986" height="81.7371" filterUnits="userSpaceOnUse" color-interpolation-filters="sRGB">
<feFlood flood-opacity="0" result="BackgroundImageFix"/>
<feColorMatrix in="SourceAlpha" type="matrix" values="0 0 0 0 0 0 0 0 0 0 0 0 0 0 0 0 0 0 127 0" result="hardAlpha"/>
<feOffset dy="0.969525"/>
<feGaussianBlur stdDeviation="4.36286"/>
<feComposite in2="hardAlpha" operator="out"/>
<feColorMatrix type="matrix" values="0 0 0 0 0 0 0 0 0 0 0 0 0 0 0 0 0 0 0.13 0"/>
<feBlend mode="normal" in2="BackgroundImageFix" result="effect1_dropShadow_1257_1109"/>
<feBlend mode="normal" in="SourceGraphic" in2="effect1_dropShadow_1257_1109" result="shape"/>
</filter>
</defs>
</svg>
