<svg width="90" height="87" viewBox="0 0 90 87" fill="none" xmlns="http://www.w3.org/2000/svg">
<g filter="url(#filter0_d_1254_1110)">
<ellipse cx="47.3263" cy="44.5306" rx="33.6735" ry="32.1429" fill="#F6B318"/>
<path d="M62.1483 27.8188L66.9997 38.5971V66.9807H57.2935V38.5971L62.1483 27.8188Z" fill="#D9D9D9"/>
<path d="M60.3449 22.7886H34.2967C33.8202 22.7886 33.3632 22.9779 33.0262 23.3148C32.6893 23.6517 32.5 24.1087 32.5 24.5852V27.8189H62.1416V24.5852C62.1416 24.1087 61.9523 23.6517 61.6154 23.3148C61.2784 22.9779 60.8214 22.7886 60.3449 22.7886Z" fill="#F2F2F2"/>
<path d="M27.6528 38.5971V66.9789H57.2909V38.5971L62.1423 27.8188H32.5024L27.6528 38.5971Z" fill="#FBFBFB"/>
<path d="M33.0495 48.2787C33.6745 46.6352 34.7285 45.1892 36.1018 44.0911C37.4751 42.9931 39.1176 42.2831 40.8583 42.035C42.599 41.7869 44.3744 42.0098 45.9998 42.6805C47.6252 43.3512 49.0412 44.4452 50.1004 45.8486L52.2883 45.5363C51.0776 43.5868 49.3256 42.0318 47.2462 41.061C45.1667 40.0902 42.8497 39.7457 40.5777 40.0694C38.3058 40.3931 36.1772 41.371 34.4515 42.8839C32.7259 44.3968 31.478 46.3792 30.8599 48.5893L33.0495 48.2787Z" fill="#F6B318"/>
<path d="M49.8556 58.015C48.9474 59.1223 47.8084 60.0179 46.5182 60.6393C45.228 61.2607 43.8177 61.593 42.3858 61.6129C40.9539 61.6327 39.5349 61.3398 38.2279 60.7544C36.921 60.169 35.7576 59.3054 34.819 58.2238L32.5591 58.5467C33.7012 60.1809 35.238 61.4997 37.0267 62.3805C38.8153 63.2613 40.7976 63.6754 42.7893 63.5844C44.781 63.4933 46.7173 62.9001 48.4181 61.8598C50.1189 60.8194 51.529 59.3659 52.5172 57.6343L49.8556 58.015Z" fill="#F6B318"/>
<path d="M43.5042 57.2853L43.4515 57.0134C43.4079 57.0079 43.3636 57.0079 43.32 57.0134C43.0813 57.0485 42.969 57.1467 43.0462 57.659C43.1094 58.11 43.2393 58.1766 43.5059 58.138C43.612 58.122 43.7154 58.0913 43.813 58.0468L43.8814 58.2714C43.7559 58.3237 43.6245 58.3608 43.4902 58.3819C43.041 58.4451 42.8164 58.3293 42.7269 57.7117C42.6304 57.0379 42.8515 56.8432 43.2971 56.7818C43.4136 56.7668 43.5316 56.7668 43.6481 56.7818L43.7112 57.2607L43.5042 57.2853Z" fill="#2D2A26"/>
<path d="M44.4642 58.0168L44.6396 57.9817L44.4782 56.85L44.2922 56.8676L44.2642 56.6658L44.9362 56.5693L44.9642 56.7711L44.7888 56.8026L44.8502 57.2272L45.4467 57.143L45.3871 56.7184L45.2116 56.736L45.1836 56.5342L45.8538 56.4395L45.8836 56.6412L45.6994 56.6763L45.8608 57.808L46.0468 57.7904L46.0749 57.9922L45.4046 58.087L45.3766 57.8852L45.552 57.8536L45.4853 57.3852L44.887 57.4711L44.9537 57.9396L45.1292 57.9221L45.1572 58.1238L44.4852 58.2203L44.4642 58.0168Z" fill="#2D2A26"/>
<path d="M46.6624 57.6973L46.8379 57.6622L46.6764 56.5306L46.4905 56.5481L46.4624 56.3463L47.1484 56.248L47.1765 56.4498L47.001 56.4849L47.1625 57.6184L47.3485 57.6008L47.3765 57.8026L46.6905 57.9008L46.6624 57.6973Z" fill="#2D2A26"/>
<path d="M48.6951 56.5553L48.6425 56.2834C48.5988 56.2779 48.5546 56.2779 48.5109 56.2834C48.2723 56.3185 48.16 56.4167 48.2372 56.9291C48.3003 57.38 48.4302 57.4466 48.6969 57.408C48.8029 57.392 48.9062 57.3613 49.0039 57.3168L49.0723 57.5414C48.9468 57.5937 48.8154 57.6308 48.6811 57.6519C48.2319 57.7151 48.0073 57.5993 47.9178 56.9817C47.8213 56.3079 48.0424 56.1132 48.4881 56.0518C48.6046 56.0368 48.7225 56.0368 48.839 56.0518L48.9021 56.5308L48.6951 56.5553Z" fill="#2D2A26"/>
<path d="M49.6551 57.2762L49.8306 57.2411L49.6692 56.1094L49.4832 56.127L49.4551 55.9252L50.092 55.834L50.1201 56.0287L49.9832 56.0533L50.0587 56.5797L50.4552 55.9936L50.3095 56.0077L50.2815 55.8129L50.9184 55.7217L50.9465 55.9235L50.8202 55.948L50.4061 56.5498L51.0079 57.0762L51.1395 57.0622L51.1676 57.2639L50.5061 57.3569L50.478 57.1639L50.6236 57.1376L50.0797 56.6481L50.1604 57.2113L50.2973 57.1955L50.3253 57.3903L49.6885 57.4815L49.6551 57.2762Z" fill="#2D2A26"/>
<path d="M52.4979 56.5061L52.4681 56.378L52.1295 56.4271L52.1944 56.8903L52.6418 56.8272L52.626 56.6377L52.8418 56.6061L52.9015 57.0184L51.7242 57.1939L51.6961 56.9921L51.8716 56.957L51.7101 55.8236L51.5242 55.8411L51.4961 55.6393L52.6734 55.4639L52.7296 55.8622L52.5137 55.8937L52.4769 55.7183L52.0295 55.7814L52.0909 56.2148L52.4295 56.1657V56.0376L52.6243 56.0095L52.6892 56.4727L52.4979 56.5061Z" fill="#2D2A26"/>
<path d="M53.5328 56.9289L53.5047 56.7271L53.6801 56.6921L53.5188 55.5604L53.3327 55.5779L53.3047 55.3761L53.9065 55.2901L54.4733 56.0411C54.5715 56.1734 54.6623 56.311 54.7452 56.4534C54.7066 56.3025 54.6715 56.1376 54.6522 56.0148L54.5662 55.4042L54.3907 55.4218L54.3627 55.2235L54.9786 55.1357L55.0066 55.3375L54.8417 55.3674L55.033 56.7113L54.6206 56.771L54.0521 56.02C53.9538 55.8878 53.8631 55.7501 53.7802 55.6077H53.7714C53.81 55.7586 53.8468 55.9235 53.8644 56.0464L53.9504 56.6552L54.1258 56.6377L54.1539 56.8359L53.5328 56.9289Z" fill="#2D2A26"/>
<path d="M51.6158 47.8174C51.6741 47.8066 51.734 47.808 51.7917 47.8216C51.8494 47.8352 51.9037 47.8606 51.951 47.8964C52.1422 48.042 52.265 48.3701 52.3492 48.9632L54.1652 48.5157C54.1285 47.7558 53.7938 47.0409 53.2335 46.5261C52.9903 46.3631 52.7166 46.2512 52.4289 46.1972C52.1411 46.1432 51.8454 46.1483 51.5597 46.212C50.8701 46.2787 50.2304 46.601 49.7665 47.1156C49.5578 47.3864 49.4091 47.6987 49.3304 48.0314C49.2518 48.3642 49.2449 48.71 49.3103 49.0456C49.5349 50.6019 50.6192 51.023 51.5772 51.3932H51.5878C52.2896 51.6564 52.9107 51.8845 53.0055 52.5372C53.0394 52.6923 53.0247 52.854 52.9633 53.0004C52.9319 53.0575 52.8868 53.1059 52.8319 53.1412C52.7771 53.1764 52.7143 53.1974 52.6493 53.2022C52.1492 53.2741 51.8895 52.9372 51.7351 52.0021L49.8578 52.4845C49.8419 52.4887 49.8252 52.4868 49.8106 52.4794C49.796 52.472 49.7847 52.4594 49.7788 52.4442L47.7576 47.0787L45.252 47.4402L44.8222 54.5286C44.8212 54.5429 44.8156 54.5565 44.8062 54.5674C44.7969 54.5783 44.7843 54.5858 44.7703 54.589C44.7563 54.5921 44.7417 54.5907 44.7286 54.5849C44.7155 54.5791 44.7046 54.5692 44.6976 54.5567L43.2273 51.7652C43.2219 51.7505 43.2219 51.7343 43.2273 51.7196L44.3063 46.5629L42.171 46.8629L41.6552 50.451C41.6531 50.4652 41.6465 50.4782 41.6364 50.4884C41.6263 50.4985 41.6132 50.5051 41.599 50.5072H41.5411C41.5268 50.5092 41.5123 50.5065 41.4996 50.4996C41.4869 50.4926 41.4769 50.4817 41.471 50.4686L40.3796 48.1139L29.582 49.6404L29.8206 51.2985L31.1875 51.1037C31.2044 51.1012 31.2217 51.1055 31.2355 51.1157C31.2493 51.1259 31.2586 51.1411 31.2611 51.1581L32.1735 57.65L34.0509 57.3868L33.1385 50.8949C33.136 50.8776 33.1404 50.8599 33.1508 50.8458C33.1559 50.8386 33.1624 50.8325 33.17 50.828C33.1775 50.8235 33.1859 50.8206 33.1947 50.8195L34.3667 50.6545C34.3753 50.6533 34.384 50.6538 34.3923 50.656C34.4007 50.6581 34.4085 50.6619 34.4154 50.6672C34.4222 50.6724 34.428 50.6789 34.4323 50.6864C34.4366 50.6939 34.4393 50.7021 34.4404 50.7107L35.3528 57.2026L39.2935 56.6481H39.3023C39.3122 56.6479 39.3219 56.6499 39.3309 56.654C39.3398 56.6581 39.3477 56.6642 39.354 56.6718C39.3603 56.6794 39.3647 56.6883 39.367 56.6979C39.3693 56.7075 39.3694 56.7175 39.3672 56.7271L38.9707 58.7852L41.3236 58.4711L41.8763 53.5408C41.8783 53.5264 41.8848 53.5131 41.8949 53.5027C41.905 53.4923 41.9181 53.4854 41.9324 53.4829H41.978C41.9923 53.4809 42.0069 53.4835 42.0196 53.4905C42.0322 53.4975 42.0423 53.5083 42.0482 53.5215L43.1869 56.1112L46.696 55.6164L46.7241 53.9373C46.7247 53.9219 46.7307 53.9072 46.7409 53.8957C46.7511 53.8842 46.7651 53.8766 46.7803 53.8742L48.1383 53.6794C48.1538 53.6771 48.1696 53.6804 48.1828 53.6888C48.196 53.6972 48.2057 53.71 48.2102 53.725L48.712 55.3357L50.7438 55.048L50.4806 54.3093C50.4771 54.2972 50.477 54.2844 50.4804 54.2723C50.4838 54.2602 50.4906 54.2493 50.4999 54.2409C50.5115 54.2313 50.5261 54.2261 50.5412 54.2261C50.5562 54.2261 50.5708 54.2313 50.5824 54.2409C50.8762 54.4953 51.2272 54.675 51.6054 54.7645C51.9836 54.854 52.3779 54.8507 52.7546 54.755C53.0958 54.7362 53.4285 54.6415 53.7285 54.4777C54.0284 54.3139 54.288 54.0852 54.4883 53.8083C54.6885 53.5313 54.8244 53.2131 54.886 52.877C54.9476 52.5408 54.9333 52.1951 54.8442 51.8652C54.6267 50.3528 53.4406 49.8808 52.5019 49.5001L52.3738 49.4492C51.7369 49.1754 51.3211 48.9526 51.2316 48.3806C51.2084 48.2569 51.2275 48.1289 51.286 48.0174C51.3218 47.9609 51.3702 47.9134 51.4274 47.8787C51.4847 47.844 51.5491 47.823 51.6158 47.8174ZM40.334 52.2179L39.7778 54.8146C39.7748 54.8275 39.7681 54.8393 39.7584 54.8484C39.7487 54.8574 39.7365 54.8634 39.7234 54.8655L37.0389 55.241H37.0301C37.0156 55.2406 37.0015 55.2357 36.9898 55.2269C36.9827 55.2218 36.9767 55.2153 36.9721 55.2077C36.9676 55.2002 36.9647 55.1918 36.9635 55.1831L36.7442 53.6145C36.7427 53.6059 36.7431 53.5971 36.7452 53.5886C36.7473 53.5802 36.7511 53.5723 36.7564 53.5654C36.7616 53.5582 36.7681 53.5522 36.7757 53.5477C36.7832 53.5432 36.7916 53.5402 36.8003 53.5391L38.6847 53.2671L38.4531 51.6529L36.574 51.9231C36.5654 51.9246 36.5566 51.9242 36.5481 51.9221C36.5397 51.92 36.5317 51.9161 36.5248 51.9108C36.5177 51.9057 36.5117 51.8991 36.5072 51.8916C36.5026 51.884 36.4997 51.8757 36.4985 51.867L36.3002 50.4633C36.2988 50.4547 36.2991 50.4459 36.3012 50.4375C36.3034 50.429 36.3072 50.4211 36.3125 50.4142C36.3177 50.407 36.3242 50.401 36.3318 50.3965C36.3393 50.392 36.3477 50.389 36.3564 50.3879L39.0532 50.0089C39.0663 50.0069 39.0798 50.0091 39.0918 50.015C39.1037 50.021 39.1135 50.0305 39.1198 50.0422L40.327 52.1705C40.3344 52.1852 40.338 52.202 40.334 52.2179ZM47.6646 52.1021C47.6595 52.11 47.6528 52.1167 47.6449 52.1219C47.6371 52.127 47.6282 52.1304 47.6189 52.1319L46.8101 52.2477H46.8013C46.7858 52.2476 46.7709 52.242 46.7592 52.2319C46.7522 52.2258 46.7465 52.2182 46.7426 52.2098C46.7387 52.2013 46.7366 52.1921 46.7364 52.1828L46.7153 49.3755C46.7156 49.3598 46.7213 49.3447 46.7316 49.3328C46.7419 49.3209 46.756 49.313 46.7715 49.3106L46.8399 49.3018C46.8558 49.2994 46.8721 49.3029 46.8856 49.3117C46.8992 49.3204 46.9091 49.3337 46.9136 49.3492L47.6768 52.0582C47.6776 52.0738 47.6733 52.0892 47.6646 52.1021Z" fill="#2D2A26"/>
<path d="M54.1157 46.2926L53.9893 46.3101L54.0595 46.7962L53.942 46.8137L53.8718 46.3277L53.7455 46.3452L53.7314 46.2487L54.1034 46.1943L54.1157 46.2926Z" fill="#2D2A26"/>
<path d="M54.3283 46.1629L54.4704 46.5612L54.495 46.1383L54.6704 46.1138L54.7546 46.6963L54.6476 46.7121L54.5792 46.2489L54.5423 46.7279L54.4511 46.7419L54.2757 46.2927L54.3441 46.7559L54.2371 46.7717L54.1528 46.1892L54.3283 46.1629Z" fill="#2D2A26"/>
<path d="M41.8771 43.3311L38.8628 46.2928L40.4805 46.0576L41.235 47.5087L41.8771 43.3311Z" fill="#F6B318"/>
<path d="M40.5549 44.3767L39.2671 43.7188L39.9286 44.9926L40.5549 44.3767Z" fill="#F6B318"/>
<path d="M41.8043 45.0171L41.6709 45.8944L43.0974 45.6873L41.8043 45.0171Z" fill="#F6B318"/>
<ellipse cx="24.0303" cy="22.5408" rx="15.0303" ry="14.5408" fill="white"/>
<path d="M18.1868 19.046L17.8088 17.48C18.6968 17.12 19.5968 16.556 20.5088 15.788H21.9488V29H20.0408V18.056C19.8608 18.176 19.6088 18.332 19.2848 18.524C18.9608 18.704 18.5948 18.878 18.1868 19.046ZM25.94 27.29H29.558V29H23.906C23.906 28.904 23.9 28.802 23.888 28.694C23.888 28.574 23.888 28.454 23.888 28.334C23.864 27.878 23.9 27.458 23.996 27.074C24.068 26.426 24.242 25.826 24.518 25.274C24.806 24.722 25.136 24.188 25.508 23.672C25.88 23.156 26.246 22.64 26.606 22.124C26.966 21.596 27.266 21.056 27.506 20.504C27.746 19.94 27.866 19.328 27.866 18.668C27.866 18.14 27.77 17.762 27.578 17.534C27.386 17.306 27.122 17.192 26.786 17.192C26.27 17.192 25.94 17.414 25.796 17.858C25.652 18.302 25.634 19.022 25.742 20.018L23.978 20.144C23.87 19.316 23.876 18.554 23.996 17.858C24.116 17.162 24.404 16.604 24.86 16.184C25.316 15.764 25.982 15.554 26.858 15.554C27.83 15.554 28.562 15.824 29.054 16.364C29.546 16.892 29.792 17.666 29.792 18.686C29.792 19.454 29.66 20.162 29.396 20.81C29.144 21.458 28.826 22.064 28.442 22.628C28.058 23.192 27.674 23.732 27.29 24.248C26.906 24.752 26.582 25.256 26.318 25.76C26.066 26.252 25.94 26.762 25.94 27.29Z" fill="#2D2A26"/>
</g>
<defs>
<filter id="filter0_d_1254_1110" x="0.274277" y="0.243802" width="89.7405" height="87.4514" filterUnits="userSpaceOnUse" color-interpolation-filters="sRGB">
<feFlood flood-opacity="0" result="BackgroundImageFix"/>
<feColorMatrix in="SourceAlpha" type="matrix" values="0 0 0 0 0 0 0 0 0 0 0 0 0 0 0 0 0 0 127 0" result="hardAlpha"/>
<feOffset dy="0.969525"/>
<feGaussianBlur stdDeviation="4.36286"/>
<feComposite in2="hardAlpha" operator="out"/>
<feColorMatrix type="matrix" values="0 0 0 0 0 0 0 0 0 0 0 0 0 0 0 0 0 0 0.13 0"/>
<feBlend mode="normal" in2="BackgroundImageFix" result="effect1_dropShadow_1254_1110"/>
<feBlend mode="normal" in="SourceGraphic" in2="effect1_dropShadow_1254_1110" result="shape"/>
</filter>
</defs>
</svg>
